<?xml version="1.0" standalone="no"?>
<!DOCTYPE svg PUBLIC "-//W3C//DTD SVG 20010904//EN"
 "http://www.w3.org/TR/2001/REC-SVG-20010904/DTD/svg10.dtd">
<svg version="1.0" xmlns="http://www.w3.org/2000/svg"
 width="80.000000pt" height="80.000000pt" viewBox="0 0 80.000000 80.000000"
 preserveAspectRatio="xMidYMid meet">

<g transform="translate(0.000000,80.000000) scale(0.100000,-0.100000)"
fill="#000000" stroke="none">
<path d="M310 699 c-36 -11 -73 -29 -82 -41 -36 -42 -13 -133 49 -189 73 -67
114 -75 156 -31 79 82 74 241 -9 272 -33 13 -37 12 -114 -11z m119 -45 c36
-46 22 -164 -19 -172 -9 -1 -23 11 -33 28 -24 41 -51 41 -42 0 5 -23 3 -30 -9
-30 -24 0 -76 78 -76 115 0 56 46 77 57 25 7 -39 29 -38 37 2 12 63 50 77 85
32z"/>
<path d="M572 459 c-45 -13 -119 -91 -133 -140 -18 -58 -3 -81 82 -123 87 -43
112 -45 149 -8 66 67 60 216 -12 266 -25 18 -38 18 -86 5z m8 -69 c-14 -26
-13 -30 9 -30 10 0 25 10 34 23 15 21 16 21 34 4 23 -23 23 -109 0 -154 -14
-26 -24 -33 -46 -33 -34 0 -41 14 -41 76 0 53 -16 57 -36 9 -16 -40 -49 -48
-59 -15 -9 30 30 105 68 129 35 22 52 19 37 -9z"/>
<path d="M136 379 c-67 -79 -71 -200 -8 -249 30 -25 78 -23 165 6 90 30 98
118 19 206 -34 38 -100 77 -129 78 -6 0 -27 -19 -47 -41z m159 -79 c29 -39 33
-91 9 -114 -21 -22 -23 -21 -65 20 -38 37 -68 40 -49 4 17 -32 12 -60 -10 -60
-43 0 -72 91 -47 150 l14 35 13 -28 c17 -34 34 -30 38 9 5 54 9 58 42 37 16
-10 41 -34 55 -53z"/>
</g>
</svg>
