<?xml version="1.0" encoding="UTF-8"?>
<svg width="24px" height="24px" viewBox="0 0 24 24" version="1.1" xmlns="http://www.w3.org/2000/svg" xmlns:xlink="http://www.w3.org/1999/xlink">
    <title>Crab</title>
    <g id="Crab" stroke="none" stroke-width="1" fill="none" fill-rule="evenodd" stroke-linecap="round">
        <path d="M9,3 L9,6 L11,5 C11,6.87142149 9.48291313,8.38850835 7.61149165,8.38850835 C7.42484969,8.38850835 7.23852679,8.3730878 7.0544243,8.34240405 L5,8 L5,7 C5,4.85780461 6.68396847,3.10892112 8.80035966,3.00489531 L9,3 Z M5,8 L5,8.63951221 C5,9.52168891 5.29163142,10.3791208 5.82950404,11.0783553 L7,12.6 M6.5,13 L5.23606798,13 C4.47852386,13 3.78599762,13.4280048 3.4472136,14.1055728 L3,15 M5.8,16 L5.23606798,16 C4.47852386,16 3.78599762,16.4280048 3.4472136,17.1055728 L3,18 M8.5,19 L7.23606798,19 C6.47852386,19 5.78599762,19.4280048 5.4472136,20.1055728 L5,21 M17.5,13 L18.763932,13 C19.5214761,13 20.2140024,13.4280048 20.5527864,14.1055728 L21,15 M18.2,16 L18.763932,16 C19.5214761,16 20.2140024,16.4280048 20.5527864,17.1055728 L21,18 M15.5,19 L16.763932,19 C17.5214761,19 18.2140024,19.4280048 18.5527864,20.1055728 L19,21 M8.29042111,18.8226385 L9.125,19.3125 C10.9000747,20.3543917 13.0999253,20.3543917 14.875,19.3125 L15.7095789,18.8226385 C17.010003,18.059346 17.9313344,16.7863285 18.25,15.3125 C18.5085293,14.1168021 17.748804,12.9379181 16.5531061,12.6793888 L16.4815717,12.6651505 L15.375,12.5 C13.137212,12.1684759 10.862788,12.1684759 8.625,12.5 L7.59039273,12.6532752 C6.38027267,12.8325522 5.5446093,13.9588811 5.72388634,15.1690011 C5.73101325,15.2171078 5.73972253,15.2649667 5.75,15.3125 C6.06866563,16.7863285 6.98999696,18.059346 8.29042111,18.8226385 Z M19,8 L19,8.63951221 C19,9.52168891 18.7083686,10.3791208 18.170496,11.0783553 L17,12.6 M15,3 L15,6 L13,5 C13,6.87142149 14.5170869,8.38850835 16.3885084,8.38850835 C16.5751503,8.38850835 16.7614732,8.3730878 16.9455757,8.34240405 L19,8 L19,7 C19,4.85780461 17.3160315,3.10892112 15.1996403,3.00489531 L15,3 Z" id="Combined-Shape" stroke="#000000"></path>
        <path d="M10.5,10.6 L10.5,10.5 L10.5,10.5 L10.5,10.6 Z" id="Rectangle-Copy-3" stroke="#000000" stroke-width="1.5" stroke-linejoin="round"></path>
        <path d="M13.5,10.6 L13.5,10.5 L13.5,10.5 L13.5,10.6 Z" id="Rectangle-Copy-4" stroke="#000000" stroke-width="1.5" stroke-linejoin="round"></path>
    </g>
</svg>