<?xml version="1.0" encoding="UTF-8" standalone="no"?>
<svg
   version="1.0"
   width="64.000000pt"
   height="64.000000pt"
   viewBox="0 0 64.000000 64.000000"
   preserveAspectRatio="xMidYMid meet"
   id="svg10"
   sodipodi:docname="peanut.svg"
   inkscape:version="1.4 (86a8ad7, 2024-10-11)"
   xmlns:inkscape="http://www.inkscape.org/namespaces/inkscape"
   xmlns:sodipodi="http://sodipodi.sourceforge.net/DTD/sodipodi-0.dtd"
   xmlns="http://www.w3.org/2000/svg"
   xmlns:svg="http://www.w3.org/2000/svg">
  <defs
     id="defs10" />
  <sodipodi:namedview
     id="namedview10"
     pagecolor="#505050"
     bordercolor="#ffffff"
     borderopacity="1"
     inkscape:showpageshadow="0"
     inkscape:pageopacity="0"
     inkscape:pagecheckerboard="1"
     inkscape:deskcolor="#505050"
     inkscape:document-units="pt"
     inkscape:zoom="4.7285156"
     inkscape:cx="56.148699"
     inkscape:cy="68.414705"
     inkscape:window-width="1920"
     inkscape:window-height="1009"
     inkscape:window-x="-8"
     inkscape:window-y="-8"
     inkscape:window-maximized="1"
     inkscape:current-layer="svg10" />
  <g
     transform="matrix(0.07334659,0,0,-0.07334659,9.239636,56.133023)"
     fill="#000000"
     stroke="none"
     id="g10"
     style="stroke:#000000;stroke-opacity:1;stroke-width:13.63389897;stroke-dasharray:none">
    <path
       d="M 339,577 C 311,562 283,536 263,504 205,416 199,410 152,386 96,357 66,327 45,278 24,227 26,185 51,140 90,70 193,38 263,75 c 24,12 32,12 62,-1 81,-34 170,-8 217,62 l 28,42 -26,46 c -14,25 -32,50 -40,54 -11,6 -8,13 17,31 36,27 68,92 69,139 1,119 -136,189 -251,129 z M 500,562 C 572,526 590,426 536,356 522,337 482,306 449,289 400,263 382,246 359,205 322,140 295,111 254,94 133,43 16,148 61,267 c 15,40 57,82 108,106 41,19 57,37 114,127 46,71 143,99 217,62 z m -8,-304 c 8,-7 24,-27 36,-44 l 21,-31 -25,-36 C 511,127 486,103 470,95 436,78 373,75 334,90 l -27,11 20,22 c 12,12 29,38 38,57 22,43 71,90 94,90 10,0 24,-6 33,-12 z"
       id="path1"
       style="stroke:#000000;stroke-opacity:1;stroke-width:13.63389897;stroke-dasharray:none" />
    <path
       d="m 400,520 c 0,-5 6,-10 14,-10 8,0 18,5 21,10 3,6 -3,10 -14,10 -12,0 -21,-4 -21,-10 z"
       id="path2"
       style="stroke:#000000;stroke-opacity:1;stroke-width:13.63389897;stroke-dasharray:none" />
    <path
       d="m 345,474 c -24,-37 -13,-53 13,-16 12,17 18,33 13,36 -5,3 -16,-6 -26,-20 z"
       id="path3"
       style="stroke:#000000;stroke-opacity:1;stroke-width:13.63389897;stroke-dasharray:none" />
    <path
       d="m 452,430 c -19,-31 -14,-45 8,-25 20,18 27,45 12,45 -4,0 -13,-9 -20,-20 z"
       id="path4"
       style="stroke:#000000;stroke-opacity:1;stroke-width:13.63389897;stroke-dasharray:none" />
    <path
       d="m 271,366 c -14,-14 -21,-29 -17,-33 9,-9 49,32 44,47 -2,6 -13,1 -27,-14 z"
       id="path5"
       style="stroke:#000000;stroke-opacity:1;stroke-width:13.63389897;stroke-dasharray:none" />
    <path
       d="m 377,364 c -15,-8 -25,-19 -22,-24 6,-9 65,20 65,33 0,10 -11,8 -43,-9 z"
       id="path6"
       style="stroke:#000000;stroke-opacity:1;stroke-width:13.63389897;stroke-dasharray:none" />
    <path
       d="m 306,288 c -9,-12 -14,-24 -11,-26 6,-7 24,8 35,29 15,27 -5,25 -24,-3 z"
       id="path7"
       style="stroke:#000000;stroke-opacity:1;stroke-width:13.63389897;stroke-dasharray:none" />
    <path
       d="m 190,280 c -6,-11 -7,-20 -2,-20 5,0 17,9 27,20 16,18 16,20 2,20 -9,0 -21,-9 -27,-20 z"
       id="path8"
       style="stroke:#000000;stroke-opacity:1;stroke-width:13.63389897;stroke-dasharray:none" />
    <path
       d="m 146,214 c -3,-9 -6,-25 -6,-37 0,-27 15,-11 24,26 7,29 -8,38 -18,11 z"
       id="path9"
       style="stroke:#000000;stroke-opacity:1;stroke-width:13.63389897;stroke-dasharray:none" />
    <path
       d="m 243,194 c -13,-14 -23,-27 -23,-29 0,-12 22,-3 40,15 20,20 27,41 13,39 -5,-1 -18,-12 -30,-25 z"
       id="path10"
       style="stroke:#000000;stroke-opacity:1;stroke-width:13.63389897;stroke-dasharray:none" />
  </g>
</svg>
