<?xml version="1.0" encoding="UTF-8"?>
<svg width="24px" height="24px" viewBox="0 0 24 24" version="1.1" xmlns="http://www.w3.org/2000/svg" xmlns:xlink="http://www.w3.org/1999/xlink">
    <title>Shrimp</title>
    <g id="Shrimp" stroke="none" stroke-width="1" fill="none" fill-rule="evenodd" stroke-linecap="round">
        <path d="M15.4091492,18.6986036 L15.5,18.5 C14.6355086,16.4828534 12.4348726,15.3912818 10.3058074,15.9235481 L10,16 C10,17.3807119 11.1192881,18.5 12.5,18.5 C11.1745166,18.5 10.0899613,19.5315359 10.0053177,20.8356243 L10,21 L10.3058074,21.0764519 C12.3639038,21.5909759 14.488879,20.5881138 15.4091492,18.6986036 L15.4091492,18.6986036 Z M15.5,18.5 L16.0876894,15.2677081 C16.3179456,14.0012994 15.5065195,12.7792266 14.25,12.5 C12.7524581,12.1672129 11.2843177,11.7137271 9.85996697,11.1439868 L9.5,11 C7.99008611,10.3960344 7,8.93364462 7,7.3074176 L7,7 L7,7 C5.8954305,7 5,6.1045695 5,5 L5,4 L5,4 L5,5 C5,6.1045695 5.8954305,7 7,7 L10,7 L5,7 C3.8954305,7 3,6.1045695 3,5 L3,3 L3,3 L3,5 C3,6.1045695 3.8954305,7 5,7 L10,7 L10,7 L13.0377855,7 C14.6611857,7 16.2665182,7.34067476 17.75,8 L18.1161292,8.1627241 C19.3050993,8.69115526 20.1844343,9.73773708 20.5,11 C20.822649,12.290596 20.6729809,13.6540381 20.0780456,14.8439089 L20,15 C19.3543116,16.2913768 18.2717937,17.3120884 16.9447292,17.8808303 L15.5,18.5 L15.5,18.5 Z M20.6503318,12.7744367 L20.539997,12.9515358 C19.7452448,14.1659903 18.3449036,14.8965565 16.8438806,14.8027425 L16.1253897,14.7573974 M20.0306873,9.86186454 L18.2226934,11.468717 L18.0277613,11.6323951 C17.033486,12.4205412 15.7520231,12.7531999 14.4999327,12.5481943 M16.8048928,7.6285803 L13.9923496,10.1887731 L13.8143356,10.3419788 C12.6651871,11.2777778 11.1129282,11.5562543 9.70980266,11.0776843 L9.88380266,11.1319241" id="Combined-Shape" stroke="#000000"></path>
        <line x1="11" y1="9" x2="11.1" y2="9" id="Line" stroke="#000000" stroke-width="1.5"></line>
    </g>
</svg>