<?xml version="1.0" encoding="UTF-8"?>
<svg width="24px" height="24px" viewBox="0 0 24 24" version="1.1" xmlns="http://www.w3.org/2000/svg" xmlns:xlink="http://www.w3.org/1999/xlink">
    <title>Walnut</title>
    <g id="Walnut" stroke="none" stroke-width="1" fill="none" fill-rule="evenodd" stroke-linecap="square">
        <path d="M12,21 C17,21 19,17 19,13.1176471 C19,9.03921569 16.6666667,6 12,4 C7.33333333,6 5,9.03921569 5,13.1176471 C5,17 7,21 12,21 Z M12,6.671573 L13.061931,7.73319066 C13.3416946,7.58434358 13.6609976,7.50000012 14,7.50000012 C15.1045695,7.50000012 16,8.39543063 16,9.50000012 C16,9.91213989 15.8753378,10.2951632 15.6616637,10.6134199 C16.4408283,10.8848612 17,11.6271299 17,12.5000001 C17,12.8644244 16.9025324,13.2060839 16.7322434,13.5003323 C16.9025324,13.7939164 17,14.1355759 17,14.5000001 C17,15.6045696 16.1045695,16.5000001 15,16.5000001 C15,17.6045696 14.1045695,18.5000001 13,18.5000001 C12.6356829,18.5000001 12.2941173,18.4025898 11.9999275,18.2323938 C11.7066608,18.4023678 11.364732,18.5000001 11,18.5000001 C9.8954305,18.5000001 9,17.6045696 9,16.5000001 L9,16.5000001 L8.85073766,16.4945144 C7.81587779,16.4181652 7,15.5543619 7,14.5000001 C7,14.1355759 7.09746762,13.7939164 7.26775657,13.499668 C7.09746762,13.2060839 7,12.8644244 7,12.5000001 C7,11.6271299 7.55917167,10.8848612 8.33884361,10.6118654 C8.12466221,10.2951632 8,9.91213989 8,9.50000012 C8,8.39543063 8.8954305,7.50000012 10,7.50000012 C10.3390024,7.50000012 10.6583054,7.58434358 10.938069,7.73319066 L12,6.671573 Z M12,7.5 L12,17.5 M8.58578644,8.085786 C7.80473785,8.86683458 7.80473785,10.1331645 8.58578644,10.9142131 C9.05192952,11.3803562 9.69092525,11.5682972 10.2964508,11.478036 M14.4142136,17.9142131 C15.1952621,17.1331645 15.1952621,15.8668346 14.4142136,15.085786 M16.3677673,11.03934 C15.7819807,10.4535534 14.8322334,10.4535536 14.246447,11.03934 M7.64644661,15.9000002 C8.23223305,16.4857866 9.18198052,16.4857866 9.76776695,15.9000002" id="Combined-Shape" stroke="#000000"></path>
    </g>
</svg>