<?xml version="1.0" encoding="UTF-8"?>
<svg width="24px" height="24px" viewBox="0 0 24 24" version="1.1" xmlns="http://www.w3.org/2000/svg" xmlns:xlink="http://www.w3.org/1999/xlink">
    <title>Wheat</title>
    <g id="Wheat" stroke="none" stroke-width="1" fill="none" fill-rule="evenodd" stroke-linecap="round">
        <path d="M3.46530832,20.534679 L15.2109027,8.78899174 M8.90748885,9.23119339 C10.5260377,10.4451155 10.8540525,12.741287 9.64013033,14.3598359 C9.48392783,14.5681041 9.3061194,14.7589289 9.10982697,14.9291885 L8.90748885,15.0924774 C7.28893997,13.8785552 6.96092521,11.5823837 8.17484736,9.96383487 C8.33104986,9.75556668 8.5088583,9.56474181 8.70515072,9.39448224 L8.90748885,9.23119339 Z M11.8381055,6.30055141 C13.4566544,7.51447356 13.7846691,9.81064501 12.570747,11.4291939 C12.4145445,11.6374621 12.236736,11.8282869 12.0404436,11.9985465 L11.8381055,12.1618354 C10.2195566,10.9479132 9.89154184,8.65174177 11.105464,7.03319289 C11.2616665,6.82492469 11.4394749,6.63409983 11.6357674,6.46384026 L11.8381055,6.30055141 Z M14.7687221,3.36990942 C16.387271,4.58383158 16.7152858,6.88000303 15.5013636,8.4985519 C15.3451611,8.7068201 15.1673527,8.89764496 14.9710602,9.06790454 L14.7687221,9.23119339 C13.1501732,8.01727123 12.8221585,5.72109978 14.0360806,4.10255091 C14.1922831,3.89428271 14.3700916,3.70345785 14.566384,3.53319827 L14.7687221,3.36990942 Z M20.6299554,9.23119339 C19.4160647,10.8497283 17.1199302,11.1777572 15.5013953,9.96386656 C15.2931167,9.80765894 15.102283,9.62984306 14.9320168,9.43354137 L14.7687221,9.23119339 C15.9826128,7.61265851 18.2787473,7.28462956 19.8972822,8.49852022 C20.1055608,8.65472784 20.2963945,8.83254372 20.4666607,9.02884541 L20.6299554,9.23119339 Z M17.6993388,12.1618354 C16.4854481,13.7803702 14.1893135,14.1083992 12.5707787,12.8945085 C12.3625,12.7383009 12.1716664,12.560485 12.0014002,12.3641834 L11.8381055,12.1618354 C13.0519961,10.5433005 15.3481307,10.2152715 16.9666656,11.4291622 C17.1749442,11.5853698 17.3657778,11.7631857 17.536044,11.9594874 L17.6993388,12.1618354 Z M14.7687221,15.0924774 C13.5548315,16.7110122 11.2586969,17.0390412 9.64016202,15.8251505 C9.43188339,15.6689429 9.24104976,15.491127 9.07078357,15.2948253 L8.90748885,15.0924774 C10.1213795,13.4739425 12.4175141,13.1459135 14.036049,14.3598042 C14.2443276,14.5160118 14.4351612,14.6938277 14.6054274,14.8901294 L14.7687221,15.0924774 Z M5.90748885,12.2311934 C7.52603772,13.4451155 7.85405249,15.741287 6.64013033,17.3598359 C6.48392783,17.5681041 6.3061194,17.7589289 6.10982697,17.9291885 L5.90748885,18.0924774 C4.28893997,16.8785552 3.96092521,14.5823837 5.17484736,12.9638349 C5.33104986,12.7555667 5.5088583,12.5647418 5.70515072,12.3944822 L5.90748885,12.2311934 Z M11.7687221,18.0924774 C10.5548315,19.7110122 8.25869689,20.0390412 6.64016202,18.8251505 C6.43188339,18.6689429 6.24104976,18.491127 6.07078357,18.2948253 L5.90748885,18.0924774 C7.12137951,16.4739425 9.41751408,16.1459135 11.036049,17.3598042 C11.2443276,17.5160118 11.4351612,17.6938277 11.6054274,17.8901294 L11.7687221,18.0924774 Z M20.7375506,3.26301485 C21.0236732,5.26589042 19.6319978,7.12145287 17.6291624,7.40756974 C17.3714382,7.44438685 17.1107705,7.45359128 16.8515745,7.4351821 L16.593027,7.40752834 C16.3069102,5.40469292 17.6985855,3.54913047 19.7014209,3.26301359 C20.0450532,3.2139237 20.3939185,3.21392412 20.7375506,3.26301485 Z" id="Combined-Shape" stroke="#000000"></path>
    </g>
</svg>