<?xml version="1.0" encoding="UTF-8" standalone="no"?>
<!-- Created with Inkscape (http://www.inkscape.org/) -->

<svg
   width="32"
   height="32"
   viewBox="0 0 32 32"
   version="1.1"
   id="svg1"
   inkscape:version="1.4 (86a8ad7, 2024-10-11)"
   sodipodi:docname="bento-marker.svg"
   xml:space="preserve"
   xmlns:inkscape="http://www.inkscape.org/namespaces/inkscape"
   xmlns:sodipodi="http://sodipodi.sourceforge.net/DTD/sodipodi-0.dtd"
   xmlns="http://www.w3.org/2000/svg"
   xmlns:svg="http://www.w3.org/2000/svg"><sodipodi:namedview
     id="namedview1"
     pagecolor="#505050"
     bordercolor="#ffffff"
     borderopacity="1"
     inkscape:showpageshadow="0"
     inkscape:pageopacity="0"
     inkscape:pagecheckerboard="1"
     inkscape:deskcolor="#505050"
     inkscape:document-units="px"
     inkscape:zoom="12.609375"
     inkscape:cx="6.3444857"
     inkscape:cy="14.830235"
     inkscape:window-width="1189"
     inkscape:window-height="1032"
     inkscape:window-x="2224"
     inkscape:window-y="0"
     inkscape:window-maximized="0"
     inkscape:current-layer="g3" /><defs
     id="defs1" /><g
     inkscape:label="Layer 1"
     inkscape:groupmode="layer"
     id="layer1"><g
       id="g3"
       transform="matrix(0.79398382,0,0,0.83267152,3.2962589,-0.69841467)"
       inkscape:label="marker"
       style="display:inline;stroke:#ffffff;stroke-opacity:1"><path
         id="path1"
         style="fill:#ff6c32;fill-opacity:1;fill-rule:nonzero;stroke:#ffffff;stroke-width:1.48032;stroke-linecap:round;stroke-linejoin:round;stroke-dasharray:none;stroke-opacity:1"
         inkscape:label="circle"
         d="M 16,1.5789226 A 12.460455,12.460455 0 0 0 3.5400044,14.03974 12.460455,12.460455 0 0 0 5.8887098,21.270862 c 0.3677092,0.84495 2.4915329,3.055253 5.4719042,8.217406 6.959655,12.054476 2.319117,12.054476 9.278773,0 2.980371,-5.162153 5.104194,-7.372456 5.471904,-8.217406 A 12.460455,12.460455 0 0 0 28.459996,14.03974 12.460455,12.460455 0 0 0 16,1.5789226 Z" /><g
         style="fill:#ffffff;fill-opacity:1"
         id="g17"
         transform="matrix(0.67973122,0,0,0.64814947,7.8432253,5.8097697)"><path
           fill="#000000"
           d="M 15.25,11.25 V 5 h 5.25 c 0.4,0 0.75,0.15 1.05,0.45 C 21.85,5.75 22,6.1 22,6.5 v 4.75 z M 3.5,19 C 3.1,19 2.75,18.85 2.45,18.55 2.15,18.25 2,17.9 2,17.5 V 6.5 C 2,6.1 2.15,5.75 2.45,5.45 2.75,5.15 3.1,5 3.5,5 h 10.25 v 14 z m 4.375,-5.75 c 0.35,0 0.64585,-0.125 0.8875,-0.375 C 9.00415,12.625 9.125,12.33335 9.125,12 9.125,11.65 9.00415,11.35415 8.7625,11.1125 8.52085,10.87085 8.225,10.75 7.875,10.75 7.54165,10.75 7.25,10.87085 7,11.1125 6.75,11.35415 6.625,11.65 6.625,12 c 0,0.33335 0.125,0.625 0.375,0.875 0.25,0.25 0.54165,0.375 0.875,0.375 z M 15.25,19 V 12.75 H 22 v 4.75 c 0,0.4 -0.15,0.75 -0.45,1.05 C 21.25,18.85 20.9,19 20.5,19 Z"
           stroke-width="0.5"
           id="path1-7"
           style="fill:#ffffff;fill-opacity:1" /></g></g></g></svg>
