<?xml version="1.0" encoding="UTF-8" standalone="no"?>
<!-- Created with Inkscape (http://www.inkscape.org/) -->

<svg
   width="32"
   height="32"
   viewBox="0 0 32 32"
   version="1.1"
   id="svg1"
   inkscape:version="1.4 (86a8ad7, 2024-10-11)"
   sodipodi:docname="foodtruck-marker.svg"
   xml:space="preserve"
   xmlns:inkscape="http://www.inkscape.org/namespaces/inkscape"
   xmlns:sodipodi="http://sodipodi.sourceforge.net/DTD/sodipodi-0.dtd"
   xmlns:xlink="http://www.w3.org/1999/xlink"
   xmlns="http://www.w3.org/2000/svg"
   xmlns:svg="http://www.w3.org/2000/svg"><sodipodi:namedview
     id="namedview1"
     pagecolor="#505050"
     bordercolor="#ffffff"
     borderopacity="1"
     inkscape:showpageshadow="0"
     inkscape:pageopacity="0"
     inkscape:pagecheckerboard="1"
     inkscape:deskcolor="#505050"
     inkscape:document-units="px"
     inkscape:zoom="12.609375"
     inkscape:cx="8.2478315"
     inkscape:cy="6.1065675"
     inkscape:window-width="1189"
     inkscape:window-height="1032"
     inkscape:window-x="2774"
     inkscape:window-y="24"
     inkscape:window-maximized="0"
     inkscape:current-layer="layer1" /><defs
     id="defs1"><linearGradient
       id="swatch1"
       inkscape:swatch="solid"><stop
         style="stop-color:#6f6de6;stop-opacity:1;"
         offset="0"
         id="stop1" /></linearGradient><linearGradient
       inkscape:collect="always"
       xlink:href="#swatch1"
       id="linearGradient1"
       x1="2.7816439"
       y1="20.054024"
       x2="29.218356"
       y2="20.054024"
       gradientUnits="userSpaceOnUse" /><linearGradient
       inkscape:collect="always"
       xlink:href="#swatch1"
       id="linearGradient2"
       gradientUnits="userSpaceOnUse"
       x1="2.7816439"
       y1="20.054024"
       x2="29.218356"
       y2="20.054024" /></defs><g
     inkscape:label="Layer 1"
     inkscape:groupmode="layer"
     id="layer1"><g
       id="g3"
       transform="matrix(0.79639406,0,0,0.8351992,3.2576951,-0.74910463)"
       inkscape:label="marker"
       style="display:inline;fill:url(#linearGradient1);stroke:#ffffff;stroke-width:1.47584;stroke-dasharray:none;stroke-opacity:1"><path
         id="path1"
         style="fill:url(#linearGradient2);fill-opacity:1;fill-rule:nonzero;stroke:#ffffff;stroke-width:1.47584;stroke-linecap:round;stroke-linejoin:round;stroke-dasharray:none;stroke-opacity:1"
         inkscape:label="circle"
         d="M 16,1.6348361 A 12.422744,12.422744 0 0 0 3.5777139,14.057942 12.422744,12.422744 0 0 0 5.919311,21.26718 c 0.3665964,0.842392 2.4839925,3.046006 5.455343,8.192536 6.938592,12.017994 2.312099,12.017994 9.250692,0 2.971351,-5.14653 5.088746,-7.350144 5.455343,-8.192536 A 12.422744,12.422744 0 0 0 28.422286,14.057942 12.422744,12.422744 0 0 0 16,1.6348361 Z" /></g><g
       style="display:inline;fill:#ffffff;fill-opacity:1;stroke:none;stroke-opacity:1"
       id="g1"
       transform="matrix(0.47186041,0,0,0.47186042,8.9220939,3.1725637)"><path
         d="M 3,7 C 1.895,7 1,7.895 1,9 v 12 a 1.0001,1.0001 0 1 0 0,2 H 3 3.050781 C 3.2981763,24.685411 4.7500663,26 6.5,26 8.2499335,26 9.7018235,24.685411 9.9492188,23 H 21.050781 c 0.247396,1.685411 1.699286,3 3.449219,3 1.749936,0 3.201837,-1.314582 3.449219,-3 H 29 a 1.0001,1.0001 0 1 0 0,-2 v -5 c 0,-1.105 -0.895,-2 -2,-2 h -5 c -0.552,0 -1,-0.448 -1,-1 v -3 c 0,-0.552 0.448,-1 1,-1 h 2.857422 L 24.519531,8.2128906 C 24.204531,7.4778906 23.481641,7 22.681641,7 Z M 5,9.5 A 1.5,1.5 0 0 0 6.5,11 1.5,1.5 0 0 0 8,9.5 1.5,1.5 0 0 0 9.5,11 1.5,1.5 0 0 0 11,9.5 1.5,1.5 0 0 0 12.5,11 1.5,1.5 0 0 0 14,9.5 1.5,1.5 0 0 0 15.5,11 1.5,1.5 0 0 0 17,9.5 1.5,1.5 0 0 0 18.5,11 1.5,1.5 0 0 0 19,10.912109 V 15 c 0,0.552 -0.448,1 -1,1 H 4 C 3.448,16 3,15.552 3,15 V 10.912109 A 1.5,1.5 0 0 0 3.5,11 1.5,1.5 0 0 0 5,9.5 Z M 6.5,21 C 7.3402718,21 8,21.659728 8,22.5 8,23.340272 7.3402718,24 6.5,24 5.6597282,24 5,23.340272 5,22.5 5,21.659728 5.6597282,21 6.5,21 Z m 18,0 C 25.340272,21 26,21.659728 26,22.5 26,23.340272 25.340272,24 24.5,24 23.659728,24 23,23.340272 23,22.5 23,21.659728 23.659728,21 24.5,21 Z"
         id="path1-4"
         style="fill:#ffffff;fill-opacity:1;stroke:none" /></g></g></svg>
